<svg width="36" height="36" viewBox="0 0 36 36" fill="none" xmlns="http://www.w3.org/2000/svg">
<path d="M18 36C27.9411 36 36 27.9411 36 18C36 8.05888 27.9411 0 18 0C8.05888 0 0 8.05888 0 18C0 27.9411 8.05888 36 18 36Z" fill="#007AB9"/>
<path d="M28.7547 19.4481V26.8691H24.4521V19.9455C24.4521 18.207 23.8309 17.0198 22.2731 17.0198C21.0843 17.0198 20.3781 17.8191 20.0662 18.593C19.9529 18.8696 19.9238 19.2537 19.9238 19.6416V26.8688H15.6209C15.6209 26.8688 15.6787 15.1424 15.6209 13.9286H19.9241V15.7623C19.9154 15.7768 19.9032 15.7909 19.8955 15.8047H19.9241V15.7623C20.4959 14.8825 21.5156 13.6247 23.8018 13.6247C26.6324 13.6247 28.7547 15.4742 28.7547 19.4481ZM11.1198 7.69092C9.64798 7.69092 8.68506 8.65705 8.68506 9.9264C8.68506 11.1688 9.62006 12.1628 11.0633 12.1628H11.0912C12.5919 12.1628 13.525 11.1688 13.525 9.9264C13.4965 8.65705 12.5919 7.69092 11.1198 7.69092ZM8.94079 26.8691H13.242V13.9286H8.94079V26.8691Z" fill="#F1F2F2"/>
</svg>
