<svg width="95" height="28" xmlns="http://www.w3.org/2000/svg"><defs><linearGradient x1="48.587%" y1="-5.581%" x2="51.065%" y2="95.989%" id="a"><stop stop-color="#A75584" offset="1.98%"/><stop stop-color="#B6496F" offset="42.05%"/><stop stop-color="#BF4868" offset="57.37%"/><stop stop-color="#D64455" offset="81.9%"/><stop stop-color="#E0434D" offset="90.56%"/></linearGradient><linearGradient x1="74.461%" y1="9.4%" x2="-1.876%" y2="217.959%" id="b"><stop stop-color="#FFE065" offset=".284%"/><stop stop-color="#FFDC54" offset="2.41%"/><stop stop-color="#FFC906" offset="12.84%"/><stop stop-color="#FEC30C" offset="14.49%"/><stop stop-color="#F59D31" offset="26%"/><stop stop-color="#F28F3F" offset="32.06%"/><stop stop-color="#ED6948" offset="46.98%"/></linearGradient><linearGradient x1="44.243%" y1="-.043%" x2="56.7%" y2="109.768%" id="c"><stop stop-color="#CF5C6C" offset="1.81%"/><stop stop-color="#D85F68" offset="9.04%"/><stop stop-color="#EB6661" offset="26.82%"/><stop stop-color="#F1685F" offset="39.56%"/><stop stop-color="#F0774F" offset="65.21%"/><stop stop-color="#F08441" offset="95.68%"/></linearGradient></defs><g fill-rule="nonzero" fill="none"><path d="M34.391 1.382v18.1s.062 2.803-2.271 5.466c-2.333 2.662-5.396 2.984-6.208 2.984h-3.49l.442-20.135s.058-3.027 2.602-5.556C27.89-.169 30.984.003 30.984.003h2.07c0-.001 1.337-.126 1.337 1.379Z" fill="url(#a)" transform="translate(-0.000077, 0.034209)"/><path d="m11.31 15.669.102 12.263H1.214S0 27.904 0 26.962v-3.678s-.045-2.708 2.062-4.982c2.106-2.274 4.62-2.573 5.402-2.573.783 0 3.846-.06 3.846-.06Z" fill="url(#b)" transform="translate(-0.000077, 0.034209)"/><path d="M22.915 27.932h-12.07l.464-12.263s-.143-2.92 2.57-5.515c1.862-1.78 3.59-2.23 5.099-2.23h3.883l.054 20.008Z" fill="url(#c)" transform="translate(-0.000077, 0.034209)"/><path d="M22.412 27.967h.503L22.862 7.96l-.45 20.008Z" fill="#B50D31" opacity=".61"/><path fill="#C84E28" opacity=".59" d="m11.31 15.552-.477 12.414h.567z"/><g fill="#4A4A4C"><path d="M46.833 10.308h2.874V21.73h-2.874v-1.207c-.561.532-1.125.915-1.689 1.15a4.744 4.744 0 0 1-1.835.351c-1.48 0-2.76-.572-3.84-1.717-1.08-1.144-1.619-2.566-1.619-4.268 0-1.764.523-3.209 1.567-4.336 1.045-1.127 2.314-1.69 3.808-1.69.687 0 1.332.13 1.934.388.603.26 1.16.648 1.673 1.165v-1.26ZM43.81 12.66c-.888 0-1.626.314-2.214.94-.588.626-.882 1.43-.882 2.41 0 .986.3 1.799.897 2.436a2.912 2.912 0 0 0 2.21.955c.902 0 1.65-.313 2.245-.94.595-.626.892-1.446.892-2.462 0-.994-.297-1.8-.892-2.415-.595-.616-1.347-.924-2.256-.924ZM53.735 5.604c.504 0 .936.182 1.297.546.36.364.54.805.54 1.323 0 .512-.178.947-.535 1.308a1.74 1.74 0 0 1-1.281.54c-.511 0-.947-.183-1.307-.55a1.84 1.84 0 0 1-.54-1.34c0-.504.177-.934.534-1.291a1.76 1.76 0 0 1 1.292-.536Zm-1.438 4.704h2.874V21.73h-2.874V10.308ZM57.11 10.308h2.464v1.439c.267-.567.62-.997 1.064-1.292.442-.294.926-.44 1.452-.44.373 0 .762.098 1.17.294l-.895 2.467c-.337-.168-.615-.252-.832-.252-.442 0-.816.273-1.121.819-.306.546-.458 1.617-.458 3.212l.01.557v4.62h-2.853V10.307h-.001ZM72.438 10.308h2.875V21.73h-2.875v-1.207c-.56.532-1.124.915-1.688 1.15a4.744 4.744 0 0 1-1.835.351c-1.48 0-2.76-.572-3.84-1.717-1.08-1.144-1.619-2.566-1.619-4.268 0-1.764.523-3.209 1.567-4.336 1.045-1.127 2.314-1.69 3.808-1.69.687 0 1.332.13 1.934.388.603.26 1.16.648 1.673 1.165v-1.26Zm-3.021 2.352c-.889 0-1.626.314-2.215.94-.588.626-.88 1.43-.88 2.41 0 .986.298 1.799.896 2.436a2.91 2.91 0 0 0 2.21.955c.902 0 1.65-.313 2.245-.94.594-.626.892-1.446.892-2.462 0-.994-.298-1.8-.892-2.415-.594-.616-1.346-.924-2.256-.924ZM77.904 5.899h2.874v15.833h-2.874zM88.77 10.015c1.08 0 2.097.269 3.048.808a5.844 5.844 0 0 1 2.227 2.194c.533.924.8 1.921.8 2.992a5.985 5.985 0 0 1-.805 3.024 5.798 5.798 0 0 1-2.195 2.2c-.926.528-1.947.792-3.064.792-1.642 0-3.044-.583-4.206-1.748-1.162-1.166-1.743-2.581-1.743-4.247 0-1.785.657-3.273 1.97-4.463 1.15-1.035 2.473-1.552 3.968-1.552Zm.048 2.698c-.893 0-1.637.31-2.23.93-.594.618-.892 1.412-.892 2.377 0 .994.293 1.8.88 2.415.588.616 1.331.924 2.231.924.9 0 1.649-.311 2.247-.935.597-.622.896-1.424.896-2.404s-.294-1.776-.88-2.388c-.588-.613-1.338-.919-2.252-.919Z"/></g></g></svg>