<svg xmlns="http://www.w3.org/2000/svg" width="80" height="70" fill="none" viewBox="0 0 80 70">
    <path fill="#CECFD4" d="M8.571 0C3.861 0 0 3.942 0 8.75v52.5C0 66.058 3.862 70 8.571 70H71.43C76.139 70 80 66.058 80 61.25V8.75C80 3.942 76.138 0 71.429 0H8.57zm0 5.833H71.43c1.607 0 2.857 1.276 2.857 2.917v42.383L54.263 29.554l-11.16 12.829-17.21-18.526L5.714 47.054V8.75c0-1.64 1.25-2.917 2.857-2.917zm48.572 5.834c-3.148 0-5.714 2.62-5.714 5.833s2.566 5.833 5.714 5.833c3.147 0 5.714-2.62 5.714-5.833s-2.567-5.833-5.714-5.833zM26.027 32.47l29.442 31.696H8.57c-1.607 0-2.857-1.276-2.857-2.917v-5.4l20.313-23.38zm28.348 5.72l19.91 21.418v1.641c0 1.64-1.25 2.917-2.856 2.917h-8.103L47.054 46.62l7.321-8.43z"/>
</svg>
